<svg width="148" height="40" viewBox="0 0 148 40" fill="none" xmlns="http://www.w3.org/2000/svg">
<path d="M1.664 35.864C0.853333 35.864 0.448 35.224 0.448 33.944V33.112C0.448 32.856 0.490667 32.6 0.576 32.344C0.661333 32.1307 0.853333 31.896 1.152 31.64C1.664 31.1707 2.176 30.7013 2.688 30.232C3.2 29.7627 3.69067 29.272 4.16 28.76C4.24533 28.6747 4.33067 28.632 4.416 28.632C4.50133 28.5893 4.56533 28.5467 4.608 28.504C4.69333 28.4187 4.82133 28.2267 4.992 27.928C5.16267 27.6293 5.35467 27.3947 5.568 27.224C5.78133 27.0533 5.97333 26.9253 6.144 26.84C6.31467 26.712 6.42133 26.4987 6.464 26.2C6.93333 25.6453 7.40267 25.0907 7.872 24.536C8.34133 23.9387 8.78933 23.3413 9.216 22.744C9.55733 22.5733 9.89867 22.1253 10.24 21.4C10.5813 20.6747 10.9013 20.1413 11.2 19.8C11.4133 19.8 11.5413 19.672 11.584 19.416C11.6267 19.16 11.6907 18.9467 11.776 18.776C12.3733 17.752 12.928 16.7493 13.44 15.768C13.952 14.7867 14.3573 13.7413 14.656 12.632C14.7413 12.4187 14.8267 12.248 14.912 12.12C15.04 11.9493 15.1253 11.7787 15.168 11.608V11.352C15.168 11.1813 15.1253 11.0107 15.04 10.84C14.9973 10.6267 14.9973 10.4133 15.04 10.2C15.0827 9.98667 15.1253 9.66667 15.168 9.24C15.2107 8.77067 15.2747 8.472 15.36 8.344C15.488 8.13067 15.5947 8.06667 15.68 8.152C15.808 8.23733 15.8933 8.216 15.936 8.088C15.9787 8.00267 16 7.87467 16 7.704C16.0427 7.49067 16.064 7.34133 16.064 7.256C16.064 7.21333 16.0427 7.192 16 7.192C15.9573 7.192 15.8293 7.27733 15.616 7.448C15.4453 7.576 15.36 7.59733 15.36 7.512L15.296 6.872C15.1253 6.616 14.9973 6.44533 14.912 6.36C14.8693 6.232 14.8693 6.01867 14.912 5.72V5.528C14.912 5.18667 14.6773 5.05867 14.208 5.144C13.568 4.76 13.0133 4.568 12.544 4.568C12.1173 4.568 11.712 4.65333 11.328 4.824C10.944 4.952 10.56 5.016 10.176 5.016C9.83467 5.016 9.664 4.86667 9.664 4.568C9.664 4.312 9.83467 4.09867 10.176 3.928C10.56 3.71467 10.9653 3.56533 11.392 3.48C11.8187 3.39467 12.1387 3.352 12.352 3.352C12.9067 3.352 13.4827 3.43733 14.08 3.608C14.6773 3.77866 15.1893 4.03467 15.616 4.376C16.3413 4.93067 16.832 5.63467 17.088 6.488C17.3867 7.29867 17.536 8.13067 17.536 8.984C17.536 9.752 17.472 10.52 17.344 11.288C17.216 12.0133 17.0453 12.7173 16.832 13.4C16.7467 13.7413 16.6187 14.0827 16.448 14.424C16.2773 14.7653 16.128 15.1067 16 15.448C15.9573 15.576 15.9147 15.7467 15.872 15.96C15.8293 16.1733 15.808 16.3867 15.808 16.6C15.808 16.9413 15.8933 17.112 16.064 17.112C16.192 17.112 16.4053 16.9627 16.704 16.664C18.1547 15.2133 19.584 13.7627 20.992 12.312C22.4427 10.8613 23.936 9.47467 25.472 8.152C25.8133 7.85333 26.1547 7.576 26.496 7.32C26.8373 7.064 27.1573 6.78667 27.456 6.488C27.5413 6.36 27.6693 6.232 27.84 6.104C28.0107 5.976 28.1387 5.89067 28.224 5.848C28.736 5.50667 29.2053 5.16533 29.632 4.824C30.0587 4.44 30.5067 4.09867 30.976 3.8C31.616 3.416 32.256 3.05333 32.896 2.712C33.5787 2.328 34.2613 2.008 34.944 1.752H35.008C35.136 1.70933 35.2213 1.70933 35.264 1.752C35.3493 1.79467 35.4347 1.816 35.52 1.816C35.648 1.73066 35.7333 1.64533 35.776 1.56C35.8613 1.47467 35.9893 1.41067 36.16 1.368C36.7573 1.24 37.3547 1.176 37.952 1.176C38.8053 1.176 39.616 1.304 40.384 1.56C41.152 1.816 41.792 2.24266 42.304 2.84C42.3893 3.05333 42.4533 3.24533 42.496 3.416C42.5387 3.544 42.688 3.65066 42.944 3.736C43.2427 4.29067 43.4347 4.86667 43.52 5.464C43.648 6.01867 43.712 6.59467 43.712 7.192C43.712 8.00267 43.648 8.792 43.52 9.56C43.4773 9.90133 43.3707 10.264 43.2 10.648C43.072 10.9893 43.0293 11.352 43.072 11.736L43.008 11.864C42.752 12.2053 42.6667 12.5467 42.752 12.888L42.624 13.336C42.368 13.464 42.24 13.656 42.24 13.912C42.24 14.1253 42.24 14.36 42.24 14.616H42.176C41.6213 16.3227 40.96 17.9867 40.192 19.608C39.424 21.1867 38.6133 22.744 37.76 24.28C37.76 24.3227 37.6747 24.5147 37.504 24.856C37.3333 25.1973 37.184 25.5387 37.056 25.88C36.9707 26.2213 37.0133 26.392 37.184 26.392C37.44 26.392 37.696 26.264 37.952 26.008C38.208 25.7093 38.4213 25.4747 38.592 25.304C38.9333 24.9627 39.2107 24.6 39.424 24.216C39.68 23.7893 39.9573 23.4267 40.256 23.128C40.3413 23 40.448 22.8933 40.576 22.808C40.704 22.68 40.832 22.5733 40.96 22.488C41.1733 22.3173 41.344 22.104 41.472 21.848C41.6 21.592 41.7493 21.3787 41.92 21.208L43.328 19.608C43.6693 19.608 43.8827 19.48 43.968 19.224C44.0533 18.968 44.1813 18.7333 44.352 18.52C44.5227 18.264 44.9067 17.816 45.504 17.176C46.1013 16.536 46.5493 16.1093 46.848 15.896C47.3173 15.4693 47.8507 15.256 48.448 15.256C49.344 15.256 50.0907 15.7893 50.688 16.856C50.7733 17.0267 50.9227 17.432 51.136 18.072C51.392 18.712 51.52 19.096 51.52 19.224C51.52 19.352 51.4773 19.5013 51.392 19.672C51.3493 19.8 51.3493 19.9067 51.392 19.992C51.4773 20.0773 51.5413 20.0987 51.584 20.056C51.6693 20.0133 51.7333 20.0987 51.776 20.312C51.904 20.568 51.9893 20.888 52.032 21.272C52.1173 21.656 52.1813 21.9973 52.224 22.296C52.2667 22.5093 52.2667 22.744 52.224 23C52.224 23.2133 52.2453 23.4267 52.288 23.64C52.3733 23.768 52.4373 23.8747 52.48 23.96C52.5227 24.0453 52.5653 24.1733 52.608 24.344C52.7787 25.0267 52.9707 25.7093 53.184 26.392C53.3973 27.032 53.632 27.672 53.888 28.312L53.952 28.376C53.952 28.888 54.144 29.1867 54.528 29.272C55.296 30.296 56.2773 30.808 57.472 30.808C57.6427 30.808 57.792 30.7867 57.92 30.744C58.0907 30.7013 58.2613 30.6587 58.432 30.616C58.688 30.616 58.9013 30.68 59.072 30.808C59.2853 30.936 59.2213 31.1067 58.88 31.32C58.24 31.7467 57.5787 31.96 56.896 31.96C55.6587 31.96 54.6133 31.64 53.76 31C52.9493 30.3173 52.2667 29.4853 51.712 28.504C51.2 27.5227 50.752 26.52 50.368 25.496L50.56 25.304C50.9013 25.176 51.072 25.0693 51.072 24.984C51.072 24.8987 50.9653 24.8347 50.752 24.792C50.5813 24.7067 50.3893 24.6853 50.176 24.728C49.7493 24.0027 49.4293 23.2347 49.216 22.424C49.0453 21.5707 48.768 20.76 48.384 19.992C47.872 18.9253 47.296 18.392 46.656 18.392C46.2293 18.392 45.824 18.6053 45.44 19.032C45.056 19.416 44.6293 19.8427 44.16 20.312L42.368 22.296C41.9413 22.424 41.7067 22.7227 41.664 23.192C40.896 24.0453 40.0853 24.9413 39.232 25.88C38.4213 26.776 37.5253 27.5653 36.544 28.248C35.904 28.6747 35.1787 28.888 34.368 28.888C33.984 28.888 33.6427 28.8027 33.344 28.632C33.0453 28.4613 32.896 28.1627 32.896 27.736C32.896 27.608 32.9387 27.3733 33.024 27.032C33.1947 26.4773 33.4293 25.9867 33.728 25.56C34.0693 25.1333 34.3893 24.7067 34.688 24.28C35.0293 23.768 35.3707 23.128 35.712 22.36C36.096 21.5493 36.4373 20.952 36.736 20.568C36.864 20.3547 36.992 20.1627 37.12 19.992C37.2907 19.8213 37.376 19.608 37.376 19.352L37.888 18.136C38.2293 18.008 38.4 17.8373 38.4 17.624C38.4 17.4107 38.4213 17.176 38.464 16.92C38.5067 16.664 38.592 16.4293 38.72 16.216C38.8907 15.96 38.9973 15.704 39.04 15.448C39.2107 14.808 39.4453 14.2107 39.744 13.656C40.0427 13.0587 40.2133 12.4187 40.256 11.736V11.672C40.512 10.6907 40.7253 9.70933 40.896 8.728C41.0667 7.704 41.152 6.70133 41.152 5.72C41.152 4.824 40.9813 4.09867 40.64 3.544C40.3413 2.98933 39.68 2.712 38.656 2.712C38.3573 2.712 38.016 2.66933 37.632 2.584C37.248 2.49867 36.8853 2.49867 36.544 2.584C36.4587 2.54133 36.352 2.52 36.224 2.52C36.0533 2.52 35.84 2.648 35.584 2.904L35.328 2.968L35.072 2.904C34.9013 2.904 34.7307 2.98933 34.56 3.16C34.432 3.33066 34.2827 3.48 34.112 3.608H34.048C32.5973 4.29066 31.232 5.12266 29.952 6.104C28.672 7.04267 27.4133 8.00267 26.176 8.984C26.1333 9.02667 26.048 9.09067 25.92 9.176C25.792 9.21867 25.7067 9.28267 25.664 9.368C24.0427 10.6907 22.464 12.0987 20.928 13.592C19.4347 15.0853 17.9627 16.5787 16.512 18.072C16.1707 18.072 15.9573 18.264 15.872 18.648C15.6587 18.7333 15.5307 18.8613 15.488 19.032C15.488 19.2027 15.4453 19.3947 15.36 19.608C15.104 19.9067 14.8053 20.2053 14.464 20.504C14.1227 20.8027 13.8453 21.1227 13.632 21.464C13.4613 21.7627 13.1413 22.168 12.672 22.68C12.2453 23.192 11.904 23.576 11.648 23.832C11.4773 24.0027 11.264 24.152 11.008 24.28C10.7947 24.408 10.688 24.6427 10.688 24.984C10.5173 25.24 10.3253 25.5173 10.112 25.816C9.89867 26.072 9.68533 26.3067 9.472 26.52C9.04533 26.9893 8.68267 27.5227 8.384 28.12C8.128 28.6747 7.76533 29.1653 7.296 29.592C7.21067 29.72 7.04 29.8693 6.784 30.04C6.57067 30.2107 6.42133 30.3387 6.336 30.424C6.29333 30.5093 6.272 30.5947 6.272 30.68C6.31467 30.7227 6.29333 30.8293 6.208 31C5.90933 31.5547 5.568 32.1093 5.184 32.664C4.84267 33.2613 4.48 33.816 4.096 34.328C3.79733 34.7547 3.41333 35.1173 2.944 35.416C2.47467 35.7147 2.048 35.864 1.664 35.864ZM76.506 35.608L75.93 35.416C75.8873 35.544 75.7807 35.5867 75.61 35.544C75.482 35.544 75.3753 35.5013 75.29 35.416C75.0767 35.0747 74.842 34.9253 74.586 34.968C74.33 35.0533 73.9887 35.0107 73.562 34.84H73.498C73.37 34.84 73.2207 34.8613 73.05 34.904C72.922 34.9893 72.794 35.0107 72.666 34.968L72.218 34.584C72.218 34.6267 72.1753 34.648 72.09 34.648C71.962 34.648 71.834 34.6267 71.706 34.584C71.578 34.5413 71.5353 34.4987 71.578 34.456L70.49 33.88L70.362 33.944L69.658 33.176C69.6153 33.2187 69.5727 33.24 69.53 33.24C69.4447 33.24 69.3593 33.176 69.274 33.048C69.1887 32.9627 69.1247 32.92 69.082 32.92C68.826 32.7067 68.5273 32.4933 68.186 32.28C67.8873 32.1093 67.5887 31.9173 67.29 31.704C67.2473 31.6613 67.226 31.576 67.226 31.448C67.226 31.3627 67.1833 31.2987 67.098 31.256C66.97 31.128 66.8207 31 66.65 30.872C66.4793 30.744 66.3727 30.5947 66.33 30.424L66.074 30.488C65.818 30.0187 65.5193 29.592 65.178 29.208C64.8367 28.824 64.6873 28.312 64.73 27.672H64.602L63.77 27.352V27.16C63.7273 27.16 63.6633 27.1813 63.578 27.224C63.4927 27.224 63.386 27.2027 63.258 27.16C62.9593 27.032 62.682 26.8827 62.426 26.712C62.17 26.4987 61.978 26.2427 61.85 25.944C61.8073 25.816 61.7433 25.752 61.658 25.752C61.6153 25.752 61.5727 25.7307 61.53 25.688C61.4447 25.4747 61.3167 25.2827 61.146 25.112C60.9753 24.9413 60.9113 24.728 60.954 24.472L61.146 22.872C61.4873 22.488 61.7433 22.296 61.914 22.296C62.0847 22.296 62.17 22.488 62.17 22.872L61.786 23.512L61.85 24.28C61.9353 24.3653 62.0633 24.408 62.234 24.408C62.4047 24.408 62.5327 24.3867 62.618 24.344L62.554 24.728L62.81 25.176L62.874 25.048L63.258 25.176L63.578 25.624C63.6633 25.4533 63.7487 25.4533 63.834 25.624C63.9193 25.752 63.962 25.816 63.962 25.816L64.282 25.56C64.2393 25.3467 64.1967 25.1333 64.154 24.92C64.1113 24.664 64.09 24.4293 64.09 24.216C64.09 23.9173 64.1113 23.704 64.154 23.576C64.282 23.1067 64.3247 22.744 64.282 22.488C64.282 22.488 64.3673 22.3387 64.538 22.04C64.7087 21.6987 64.8793 21.4853 65.05 21.4L65.562 21.08L65.69 21.272C65.6473 21.3147 65.562 21.4427 65.434 21.656C65.306 21.8693 65.1993 22.0187 65.114 22.104C64.7727 22.8293 64.6447 23.5547 64.73 24.28C64.73 24.3227 64.73 24.3867 64.73 24.472C64.7727 24.5147 64.7727 24.6 64.73 24.728V25.624C64.8153 25.6667 64.858 25.8373 64.858 26.136C64.858 26.392 64.9007 26.4987 64.986 26.456C65.1993 26.4133 65.37 26.4773 65.498 26.648C65.6687 26.776 65.7967 26.712 65.882 26.456L66.33 26.968H66.97C66.9273 27.0533 67.034 27.1387 67.29 27.224C67.5887 27.2667 67.8873 27.288 68.186 27.288C68.4847 27.288 68.634 27.288 68.634 27.288L69.018 27.608C69.018 27.5653 69.082 27.608 69.21 27.736H69.274C69.402 27.736 69.53 27.6933 69.658 27.608C69.8287 27.5227 69.9567 27.48 70.042 27.48C70.2553 27.5227 70.4687 27.608 70.682 27.736C70.938 27.864 71.13 27.864 71.258 27.736L71.77 27.928L72.346 27.608C72.4313 27.6933 72.602 27.7787 72.858 27.864C72.9433 27.9067 73.0713 27.928 73.242 27.928C73.626 27.928 73.9033 27.8427 74.074 27.672L74.33 27.992C74.9273 27.9493 75.5247 27.9493 76.122 27.992C76.762 27.992 77.3593 27.992 77.914 27.992C78.3833 27.992 78.8313 27.992 79.258 27.992C79.7273 27.9493 80.1753 27.9067 80.602 27.864C80.73 27.864 80.8367 27.864 80.922 27.864C81.0073 27.8213 81.0713 27.8 81.114 27.8C81.4127 27.8 81.754 27.7147 82.138 27.544C82.522 27.3733 82.842 27.288 83.098 27.288C83.1833 27.288 83.3753 27.224 83.674 27.096C84.0153 26.9253 84.122 27.032 83.994 27.416L83.354 27.736L83.162 27.672C83.1193 27.7147 82.9273 27.8213 82.586 27.992C82.2873 28.12 82.1167 28.1413 82.074 28.056L80.73 28.248C80.5593 28.2907 80.3033 28.3333 79.962 28.376C79.6207 28.4187 79.45 28.4187 79.45 28.376L78.874 28.504C78.874 28.4613 78.8313 28.44 78.746 28.44C78.5753 28.44 78.3193 28.504 77.978 28.632C77.6793 28.76 77.5087 28.8027 77.466 28.76C77.4233 28.6747 77.21 28.6747 76.826 28.76C76.4847 28.8027 76.1433 28.824 75.802 28.824C75.29 28.824 75.0127 28.7387 74.97 28.568L74.458 28.76C74.5433 28.6747 74.5007 28.632 74.33 28.632C74.202 28.5893 74.0953 28.5893 74.01 28.632L73.946 28.952C73.8607 28.9947 73.7753 28.9947 73.69 28.952C73.6047 28.9093 73.5193 28.8667 73.434 28.824C73.178 28.696 72.7727 28.632 72.218 28.632C71.6633 28.632 71.13 28.6107 70.618 28.568C70.106 28.5253 69.786 28.4187 69.658 28.248L69.146 28.504C68.9753 28.504 68.7193 28.4827 68.378 28.44C68.0793 28.3547 67.8447 28.2907 67.674 28.248C67.3753 28.1627 67.034 28.0773 66.65 27.992C66.3087 27.9067 65.9673 27.8853 65.626 27.928L65.946 28.44V28.568C66.2447 28.7387 66.4793 29.016 66.65 29.4C66.8633 29.7413 67.1833 29.8693 67.61 29.784L67.802 30.616L68.314 30.936C68.3567 30.8933 68.3993 30.872 68.442 30.872C68.57 30.872 68.7833 30.9573 69.082 31.128C69.3807 31.2987 69.6153 31.4267 69.786 31.512L69.978 31.384L70.298 31.96C70.3407 31.9173 70.3833 31.896 70.426 31.896C70.554 31.896 70.7033 31.9387 70.874 32.024C71.0447 32.1093 71.1513 32.1307 71.194 32.088L71.642 32.216L72.09 32.088C72.2607 32.344 72.3673 32.536 72.41 32.664C72.4527 32.792 72.5167 32.8773 72.602 32.92C72.8153 33.0053 72.8153 33.0693 72.602 33.112C72.4313 33.1547 72.346 33.2187 72.346 33.304L72.41 33.432H72.986C72.986 33.304 73.1353 33.1973 73.434 33.112C73.7753 33.0693 74.1167 33.048 74.458 33.048C74.97 33.048 75.2687 33.0907 75.354 33.176C75.5247 33.2613 75.5673 33.2613 75.482 33.176L76.058 33.112L76.442 33.432C76.5273 33.304 76.6127 33.24 76.698 33.24C76.826 33.24 76.9327 33.2613 77.018 33.304C77.146 33.3893 77.21 33.432 77.21 33.432C77.2953 33.4747 77.3807 33.3893 77.466 33.176C77.594 33.0053 77.7433 32.9413 77.914 32.984L78.17 33.048C78.4687 33.048 78.7673 33.0053 79.066 32.92C79.4073 32.8347 79.5993 32.92 79.642 33.176L80.09 32.856L80.41 32.92L80.282 33.432C80.282 33.6027 80.3033 33.688 80.346 33.688C80.4313 33.688 80.538 33.5387 80.666 33.24C80.8367 32.984 80.922 32.9627 80.922 33.176L81.37 32.664C81.498 32.7493 81.6687 32.792 81.882 32.792C82.2233 32.792 82.5433 32.664 82.842 32.408C83.1407 32.1947 83.5033 32.0453 83.93 31.96L83.994 32.088C84.0793 32.0453 84.1647 32.0027 84.25 31.96C84.378 31.96 84.442 32.0027 84.442 32.088L85.146 32.024C85.3167 31.896 85.594 31.7467 85.978 31.576C86.4047 31.4053 86.7033 31.2773 86.874 31.192L86.938 30.936C86.938 30.936 87.0447 30.936 87.258 30.936C87.514 30.8933 87.6633 30.8507 87.706 30.808V30.744C87.706 30.6587 87.706 30.5307 87.706 30.36C87.706 30.1467 87.7913 30.0613 87.962 30.104L88.282 30.296C88.666 30.168 88.922 29.9973 89.05 29.784C89.2207 29.528 89.4767 29.2933 89.818 29.08C89.946 28.9947 90.0527 28.888 90.138 28.76C90.266 28.632 90.4153 28.5467 90.586 28.504C90.6287 28.504 90.6927 28.568 90.778 28.696C90.906 28.824 91.034 28.8027 91.162 28.632L91.226 27.992L91.802 27.8L92.122 27.352C92.122 27.352 92.122 27.3733 92.122 27.416C92.1647 27.416 92.2073 27.416 92.25 27.416C92.4207 27.416 92.6127 27.2453 92.826 26.904C93.0393 26.5627 93.082 26.328 92.954 26.2L93.594 25.496C93.5513 25.24 93.6367 24.92 93.85 24.536C94.106 24.152 94.234 23.6827 94.234 23.128C94.234 22.7867 94.1273 22.3813 93.914 21.912C93.7007 21.4427 93.274 20.9307 92.634 20.376L92.314 20.184C91.802 19.8427 91.3327 19.5867 90.906 19.416C90.522 19.2027 90.01 18.9893 89.37 18.776C89.37 18.776 89.306 18.7333 89.178 18.648L87.386 18.136C87.2153 18.008 86.8313 17.9013 86.234 17.816C85.6367 17.7307 85.2313 17.6667 85.018 17.624C84.9327 17.5813 84.826 17.5173 84.698 17.432C84.6127 17.3467 84.5273 17.368 84.442 17.496L83.866 17.176C83.7807 17.2187 83.674 17.24 83.546 17.24C83.4607 17.24 83.3753 17.2187 83.29 17.176C83.2473 17.1333 83.1193 17.112 82.906 17.112C82.6073 17.0693 82.1167 16.9413 81.434 16.728C80.794 16.5147 80.4313 16.4507 80.346 16.536L78.682 15.704L78.49 15.768L77.914 15.448C78.042 15.6187 77.9567 15.6613 77.658 15.576C77.3593 15.448 77.018 15.2987 76.634 15.128C76.25 14.9147 75.9513 14.7867 75.738 14.744C75.0127 14.4453 74.3513 14.0187 73.754 13.464C73.1993 12.9093 72.922 12.2267 72.922 11.416C72.922 10.6907 72.9647 10.1787 73.05 9.88C73.1353 9.58133 73.242 9.32533 73.37 9.112C73.5407 8.89867 73.69 8.57867 73.818 8.152C73.9033 8.024 74.01 7.896 74.138 7.768C74.3087 7.59733 74.4153 7.42667 74.458 7.256L74.97 6.936C75.0127 6.72267 75.1193 6.50933 75.29 6.296C75.5033 6.08267 75.6953 5.93333 75.866 5.848C76.4207 5.592 77.0393 5.16533 77.722 4.568C78.4473 3.928 79.1513 3.45866 79.834 3.16C80.0047 3.07467 80.154 3.01067 80.282 2.968C80.41 2.88266 80.5593 2.81867 80.73 2.776L80.794 2.904C81.178 2.776 81.818 2.584 82.714 2.328C83.61 2.02933 84.5913 1.73067 85.658 1.432C86.7673 1.13333 87.7913 0.877332 88.73 0.663998C89.7113 0.450665 90.4793 0.343998 91.034 0.343998C91.418 0.343998 91.6313 0.407998 91.674 0.535999L92.442 0.0879993C92.4847 0.130665 92.57 0.173332 92.698 0.215998C92.826 0.215998 92.9113 0.194665 92.954 0.151999L93.594 0.343998C93.7647 0.258664 93.8927 0.215998 93.978 0.215998C94.234 0.215998 94.5113 0.301331 94.81 0.471998C95.1513 0.599998 95.4073 0.642665 95.578 0.599998C95.7913 0.514665 95.9407 0.493332 96.026 0.535999C96.154 0.535999 96.282 0.535999 96.41 0.535999H96.666C96.794 0.535999 96.922 0.557332 97.05 0.599998C97.2207 0.599998 97.3913 0.685332 97.562 0.855999L97.882 0.919998C98.01 1.048 98.074 1.19733 98.074 1.368C98.1593 1.53867 98.4153 1.64533 98.842 1.688C99.2687 1.73067 99.546 1.816 99.674 1.944C100.015 2.2 100.207 2.62667 100.25 3.224C100.335 3.77866 100.378 4.29066 100.378 4.76C100.335 5.22933 100.143 5.80533 99.802 6.488C99.5033 7.128 99.1193 7.64 98.65 8.024C98.4367 8.19467 98.1167 8.38667 97.69 8.6C97.2633 8.77067 96.9433 8.92 96.73 9.048C96.2607 9.34667 95.7487 9.496 95.194 9.496C94.3833 9.496 93.978 9.32533 93.978 8.984C93.978 8.856 94.1273 8.728 94.426 8.6C94.6393 8.51466 94.8313 8.42933 95.002 8.344C95.2153 8.216 95.4073 8.06667 95.578 7.896C95.7487 7.81067 95.8553 7.768 95.898 7.768C95.9833 7.72533 96.0473 7.68267 96.09 7.64C96.1753 7.59733 96.2393 7.55467 96.282 7.512C96.3247 7.42667 96.41 7.34133 96.538 7.256C96.794 7.04267 97.114 6.70133 97.498 6.232C97.9247 5.72 98.2233 5.336 98.394 5.08C98.4367 4.86666 98.522 4.58933 98.65 4.248C98.8207 3.864 98.906 3.52267 98.906 3.224C98.906 2.968 98.842 2.776 98.714 2.648C98.6713 2.648 98.65 2.62667 98.65 2.584L98.586 2.456C98.2447 1.73067 97.562 1.32533 96.538 1.24C95.5567 1.112 94.7247 1.048 94.042 1.048C94.042 1.048 93.9993 1.02667 93.914 0.983999C93.8287 0.941332 93.786 0.962665 93.786 1.048L92.378 1.176L92.25 1.048L90.906 1.304L90.778 1.24L89.37 1.624C89.4127 1.53867 89.3913 1.51733 89.306 1.56C89.2207 1.56 89.178 1.56 89.178 1.56L87.77 1.944L87.706 1.88L87.066 2.264C87.066 2.22133 87.0447 2.17867 87.002 2.136C86.9593 2.09333 86.938 2.072 86.938 2.072C86.8953 2.11466 86.8527 2.17866 86.81 2.264C86.7673 2.30667 86.7033 2.34933 86.618 2.392L86.49 2.328L85.594 2.648C85.594 2.69066 85.5087 2.712 85.338 2.712C84.186 3.224 82.9273 3.82133 81.562 4.504C80.2393 5.144 79.2153 6.06133 78.49 7.256L78.362 7.128L77.786 7.64C77.7433 7.68267 77.6793 7.74667 77.594 7.832C77.5513 7.91733 77.4873 8.06667 77.402 8.28C77.274 8.62133 77.082 9.02667 76.826 9.496C76.6127 9.96533 76.506 10.4133 76.506 10.84C76.506 11.2667 76.5913 11.672 76.762 12.056C76.9327 12.3973 77.0607 12.4827 77.146 12.312L77.722 12.696L77.914 13.4L78.042 13.336L78.874 13.976H79.002L80.026 14.808L80.794 15.256H81.306L82.074 15.512C82.1593 15.5547 82.2233 15.6187 82.266 15.704C82.3513 15.7467 82.458 15.704 82.586 15.576L83.226 16.024C83.2687 15.9813 83.3327 15.96 83.418 15.96C83.5033 15.96 83.5887 16.0027 83.674 16.088C83.7593 16.1307 83.8233 16.1733 83.866 16.216L83.994 16.152L86.234 17.048C86.3193 17.0053 86.426 16.984 86.554 16.984C86.7673 16.984 86.938 17.0267 87.066 17.112C87.2367 17.1547 87.4073 17.1973 87.578 17.24C87.6633 17.2827 87.77 17.3467 87.898 17.432C88.0687 17.5173 88.154 17.5813 88.154 17.624C88.2393 17.6667 88.3247 17.688 88.41 17.688C88.538 17.688 88.6447 17.688 88.73 17.688L89.306 17.88L89.882 18.2L90.458 18.264C90.458 18.264 90.6287 18.3493 90.97 18.52C91.354 18.648 91.738 18.776 92.122 18.904C92.5487 19.032 92.7833 19.1173 92.826 19.16L93.21 19.544L93.274 19.48L93.722 19.736C94.1913 20.0347 94.6607 20.6107 95.13 21.464C95.642 22.2747 95.898 23.1707 95.898 24.152C95.898 24.792 95.7913 25.432 95.578 26.072C95.4073 26.6693 95.194 27.16 94.938 27.544C94.298 28.3973 93.594 29.1653 92.826 29.848C92.1007 30.5307 91.4393 31.1067 90.842 31.576C90.6287 31.704 90.4793 31.8107 90.394 31.896C90.3087 31.9813 90.1807 32.024 90.01 32.024C89.882 32.0667 89.7753 32.1307 89.69 32.216C89.0927 32.5573 88.4313 32.856 87.706 33.112C86.9807 33.4107 86.3407 33.688 85.786 33.944C85.53 34.0293 85.3167 34.072 85.146 34.072C84.9753 34.1147 84.8047 34.1573 84.634 34.2C84.5913 34.2 84.506 34.2213 84.378 34.264C84.2927 34.3493 84.25 34.3707 84.25 34.328L83.802 34.648C83.7593 34.6053 83.6953 34.584 83.61 34.584C83.4393 34.584 83.2473 34.6693 83.034 34.84C82.8633 35.0107 82.6927 35.0747 82.522 35.032H82.458C82.33 35.032 82.1593 35.0533 81.946 35.096C81.7753 35.1813 81.6473 35.1813 81.562 35.096L80.73 35.416L80.602 35.096C80.5593 35.096 80.4953 35.1387 80.41 35.224C80.3673 35.352 80.3033 35.416 80.218 35.416C80.218 35.416 80.1327 35.3733 79.962 35.288C79.7913 35.2027 79.6633 35.2453 79.578 35.416L78.874 35.608C78.8313 35.4373 78.7033 35.352 78.49 35.352C78.3193 35.352 78.17 35.416 78.042 35.544L77.53 35.288V35.352L77.018 35.288L76.506 35.608ZM105.75 39.96C105.707 39.96 105.451 39.9387 104.982 39.896C104.555 39.896 104.342 39.8747 104.342 39.832C104.257 39.6613 104.171 39.576 104.086 39.576C104.043 39.576 103.937 39.5547 103.766 39.512C103.723 39.4693 103.51 39.32 103.126 39.064C102.742 38.808 102.465 38.5947 102.294 38.424C101.995 38.5947 101.675 38.744 101.334 38.872C100.993 39.0427 100.651 39.128 100.31 39.128C99.542 39.128 98.774 38.8293 98.006 38.232C97.2807 37.6773 96.918 37.0587 96.918 36.376C96.918 35.9067 97.0247 35.3947 97.238 34.84C97.4087 34.328 97.4727 34.0293 97.43 33.944C97.558 33.7307 97.686 33.4533 97.814 33.112C97.9847 32.7707 98.0487 32.4933 98.006 32.28C98.0913 32.1093 98.2833 31.6613 98.582 30.936C98.8807 30.168 99.1793 29.4427 99.478 28.76C99.8193 28.0347 100.033 27.672 100.118 27.672L100.182 27.224C100.225 27.0107 100.331 26.9253 100.502 26.968C100.673 26.968 100.758 27.0747 100.758 27.288C100.715 27.8853 100.63 28.4613 100.502 29.016C100.374 29.5707 100.31 30.1893 100.31 30.872V31.064C100.31 31.6187 100.374 32.152 100.502 32.664C100.673 33.176 100.715 33.7093 100.63 34.264C100.63 34.3493 100.651 34.4347 100.694 34.52C100.779 34.648 100.843 34.7547 100.886 34.84H100.95C101.163 35.5227 101.419 36.1413 101.718 36.696C102.059 36.4827 102.379 36.248 102.678 35.992C102.977 35.736 103.254 35.48 103.51 35.224C103.851 35.1813 104.065 35.0747 104.15 34.904C104.278 34.7333 104.385 34.52 104.47 34.264C104.939 33.8373 105.366 33.368 105.75 32.856C106.177 32.344 106.603 31.8747 107.03 31.448L107.094 31.384C107.265 31.0853 107.478 31 107.734 31.128C107.819 30.7867 107.969 30.424 108.182 30.04C108.438 29.656 108.715 29.2933 109.014 28.952C109.313 28.568 109.59 28.184 109.846 27.8L112.406 23.704C112.619 23.3627 112.811 23.0427 112.982 22.744C113.153 22.4027 113.345 22.0827 113.558 21.784C113.643 21.656 113.75 21.5493 113.878 21.464C114.049 21.3787 114.155 21.3147 114.198 21.272V21.08C114.198 20.824 114.241 20.632 114.326 20.504H114.39C114.561 20.2053 114.731 19.864 114.902 19.48C115.115 19.096 115.329 18.776 115.542 18.52C115.627 18.4347 115.734 18.3707 115.862 18.328C115.99 18.2427 116.075 18.136 116.118 18.008C116.118 17.9653 116.097 17.8587 116.054 17.688C116.011 17.5173 116.075 17.3893 116.246 17.304L116.31 17.176V17.112C116.737 17.0693 116.907 16.9627 116.822 16.792C116.779 16.6213 116.779 16.408 116.822 16.152L117.014 15.896V15.832C117.313 15.704 117.483 15.512 117.526 15.256C117.611 14.9573 117.675 14.68 117.718 14.424C117.803 14.3813 117.953 14.104 118.166 13.592C118.422 13.08 118.657 12.5467 118.87 11.992C119.126 11.3947 119.297 11.032 119.382 10.904C119.595 10.8187 119.702 10.6907 119.702 10.52C119.702 10.3067 119.723 10.1147 119.766 9.944C119.851 9.73067 119.873 9.496 119.83 9.24C119.83 8.984 119.851 8.728 119.894 8.472C119.979 8.216 120.043 7.93867 120.086 7.64C120.171 7.34133 120.214 7.04267 120.214 6.744V6.68C120.171 6.59466 120.15 6.46667 120.15 6.296C120.15 6.12533 120.193 5.976 120.278 5.848C120.363 5.72 120.449 5.57067 120.534 5.4V5.336C120.619 5.25067 120.726 5.08 120.854 4.824C121.025 4.568 121.195 4.46133 121.366 4.504C121.537 4.41867 121.665 4.376 121.75 4.376C121.963 4.376 122.177 4.48267 122.39 4.696H122.454L122.71 4.76C122.838 4.58933 122.923 4.26933 122.966 3.8C123.051 3.288 123.094 2.904 123.094 2.648V2.584C123.222 2.328 123.307 2.11467 123.35 1.944C123.435 1.73067 123.435 1.47467 123.35 1.176C123.435 1.09067 123.521 1.00533 123.606 0.919998C123.691 0.791999 123.798 0.685332 123.926 0.599998C124.054 0.642665 124.118 0.813332 124.118 1.112C124.118 1.28267 124.097 1.47466 124.054 1.688C124.054 1.85866 124.054 1.98667 124.054 2.072C124.011 2.15733 123.99 2.30667 123.99 2.52C123.777 2.60533 123.67 2.73333 123.67 2.904C123.67 3.032 123.691 3.18133 123.734 3.352C123.819 3.48 123.862 3.608 123.862 3.736C123.819 4.33333 123.777 4.97333 123.734 5.656C123.734 6.33867 123.734 7.04267 123.734 7.768C123.734 9.688 123.798 11.736 123.926 13.912C124.097 16.088 124.331 18.2 124.63 20.248C124.929 22.296 125.291 24.1307 125.718 25.752H125.782V25.944C125.782 26.1147 125.825 26.2853 125.91 26.456C125.995 26.6267 126.081 26.7973 126.166 26.968V27.032L126.55 27.992C126.55 28.2907 126.635 28.568 126.806 28.824C127.019 29.08 127.211 29.3147 127.382 29.528C127.425 29.784 127.446 29.976 127.446 30.104C127.489 30.1893 127.659 30.2533 127.958 30.296L128.214 30.552H128.278C128.449 31.1067 128.726 31.2987 129.11 31.128L129.174 31.192C129.217 31.1493 129.302 31.128 129.43 31.128C129.643 31.128 129.814 31.2347 129.942 31.448C130.07 31.6613 130.219 31.8107 130.39 31.896L130.454 31.96C130.539 31.96 130.603 31.8533 130.646 31.64C130.731 31.4267 130.817 31.2987 130.902 31.256C131.073 31.2987 131.35 31.192 131.734 30.936C132.161 30.6373 132.566 30.3173 132.95 29.976C133.334 29.592 133.547 29.336 133.59 29.208L133.654 29.144C133.867 28.9307 133.974 28.76 133.974 28.632C133.974 28.4613 134.102 28.2693 134.358 28.056L135.062 26.904V26.84C135.446 26.6693 135.638 26.3067 135.638 25.752C135.723 25.624 135.809 25.496 135.894 25.368C135.979 25.1973 136.043 25.0267 136.086 24.856V24.792C136.257 24.6213 136.406 24.4933 136.534 24.408C136.705 24.3227 136.705 24.1307 136.534 23.832L137.174 22.296V22.232L137.622 21.4C137.835 20.888 138.006 20.3547 138.134 19.8C138.305 19.2453 138.475 18.712 138.646 18.2C138.689 18.072 138.774 17.7733 138.902 17.304C139.03 16.792 139.158 16.28 139.286 15.768C139.457 15.256 139.542 14.936 139.542 14.808C139.585 14.5947 139.649 14.4027 139.734 14.232C139.862 14.0613 139.947 13.8907 139.99 13.72C140.075 12.9093 140.225 12.12 140.438 11.352C140.651 10.584 140.865 9.816 141.078 9.048C141.035 8.96266 140.993 8.87733 140.95 8.792C140.95 8.70667 140.95 8.62133 140.95 8.536L141.014 8.472L141.142 7.64C141.185 7.384 141.27 7.128 141.398 6.872C141.569 6.57333 141.547 6.296 141.334 6.04C141.291 5.69866 141.227 5.16533 141.142 4.44C141.057 3.71467 140.907 3.26667 140.694 3.096C140.651 2.92533 140.566 2.69066 140.438 2.392C140.31 2.09333 140.246 1.88 140.246 1.752C140.246 1.624 140.31 1.51733 140.438 1.432C140.609 1.34667 140.758 1.304 140.886 1.304C141.227 1.304 141.483 1.41067 141.654 1.624C141.867 1.83733 142.081 2.05066 142.294 2.264L142.358 2.328C142.401 2.62667 142.593 2.904 142.934 3.16V3.224C143.105 3.43733 143.211 3.672 143.254 3.928H143.318C143.361 4.01333 143.339 4.09866 143.254 4.184C143.211 4.26933 143.19 4.35467 143.19 4.44C143.275 4.568 143.382 4.65333 143.51 4.696C143.638 4.696 143.745 4.71733 143.83 4.76C144.043 4.97333 144.15 5.272 144.15 5.656C144.15 6.04 144.299 6.296 144.598 6.424C144.811 6.63733 145.003 6.85067 145.174 7.064C145.387 7.23467 145.643 7.384 145.942 7.512C146.027 7.46933 146.134 7.46933 146.262 7.512C146.39 7.55467 146.518 7.55467 146.646 7.512V7.448H146.71C146.795 7.36267 146.859 7.32 146.902 7.32C147.115 7.32 147.222 7.46933 147.222 7.768C147.222 7.98133 147.115 8.152 146.902 8.28L146.71 8.408C146.667 8.36533 146.603 8.344 146.518 8.344C146.39 8.344 146.241 8.38667 146.07 8.472C145.942 8.55733 145.793 8.6 145.622 8.6C145.451 8.472 145.302 8.36533 145.174 8.28C145.089 8.19467 144.939 8.152 144.726 8.152L144.598 8.088L143.19 6.936C143.147 6.89333 143.105 6.872 143.062 6.872C142.977 6.872 142.934 6.95733 142.934 7.128C142.934 7.256 142.934 7.36267 142.934 7.448C142.977 7.61867 142.998 7.768 142.998 7.896C142.998 8.024 142.998 8.17333 142.998 8.344C142.998 8.728 142.977 9.112 142.934 9.496C142.891 9.88 142.849 10.2427 142.806 10.584C142.635 10.7547 142.507 10.9253 142.422 11.096C142.379 11.224 142.443 11.3947 142.614 11.608C142.614 11.736 142.529 12.1413 142.358 12.824C142.23 13.5067 142.123 13.9547 142.038 14.168C141.739 15.192 141.483 16.1307 141.27 16.984C141.057 17.8373 140.715 18.7547 140.246 19.736C140.203 19.864 140.182 20.0133 140.182 20.184C140.182 20.3547 140.139 20.504 140.054 20.632V20.696C139.798 21.3787 139.542 22.0613 139.286 22.744C139.03 23.4267 138.731 24.0667 138.39 24.664L137.558 26.136C137.387 26.4347 137.217 26.6907 137.046 26.904C136.875 27.1173 136.705 27.3733 136.534 27.672C136.321 28.0987 136.107 28.5253 135.894 28.952C135.681 29.336 135.403 29.6987 135.062 30.04V30.104C134.977 30.0613 134.891 30.04 134.806 30.04C134.593 30.04 134.443 30.1467 134.358 30.36C134.273 30.5307 134.187 30.6587 134.102 30.744C134.059 30.7867 133.995 30.808 133.91 30.808C133.611 30.808 133.462 30.872 133.462 31C133.462 31.1707 133.419 31.32 133.334 31.448H133.27C132.843 31.7467 132.374 31.9813 131.862 32.152C131.35 32.3227 130.838 32.408 130.326 32.408C129.729 32.408 129.238 32.3227 128.854 32.152H128.726C128.555 31.6827 128.257 31.5547 127.83 31.768L127.766 31.704C127.553 31.4907 127.318 31.2987 127.062 31.128C126.806 31 126.571 30.8293 126.358 30.616C125.675 29.8907 125.035 28.9307 124.438 27.736C123.841 26.4987 123.435 25.4107 123.222 24.472V24.344C123.222 24.3013 123.222 24.28 123.222 24.28C123.265 24.2373 123.286 24.1947 123.286 24.152C123.286 24.024 123.243 23.896 123.158 23.768C123.115 23.64 123.051 23.5333 122.966 23.448C122.966 23.3627 122.902 23.1067 122.774 22.68C122.689 22.2107 122.603 21.7413 122.518 21.272C122.433 20.76 122.39 20.3973 122.39 20.184C122.39 19.8853 122.411 19.6507 122.454 19.48C122.539 19.3093 122.475 19.1387 122.262 18.968V18.776C122.262 18.4347 122.219 18.1147 122.134 17.816C122.091 17.4747 122.07 17.1547 122.07 16.856V16.792C122.07 16.3653 122.049 15.9813 122.006 15.64C122.006 15.256 121.985 14.872 121.942 14.488C121.899 14.1467 121.878 13.784 121.878 13.4C121.921 13.016 121.942 12.632 121.942 12.248V11.352C121.942 10.7973 121.899 10.52 121.814 10.52C121.686 10.52 121.451 10.84 121.11 11.48C121.025 11.6507 120.811 12.056 120.47 12.696C120.171 13.2933 119.83 13.9547 119.446 14.68C119.105 15.3627 118.785 15.96 118.486 16.472C118.23 16.984 118.081 17.2613 118.038 17.304C117.995 17.6027 117.846 17.88 117.59 18.136V18.2L116.438 20.184V20.248C116.353 20.3333 116.267 20.44 116.182 20.568C116.139 20.696 116.075 20.824 115.99 20.952V21.016L115.222 22.232V22.296C115.009 22.3813 114.838 22.4667 114.71 22.552C114.582 22.6373 114.582 22.8293 114.71 23.128V23.192L114.134 24.088V24.152C113.835 24.3227 113.622 24.5573 113.494 24.856C113.409 25.112 113.302 25.3893 113.174 25.688H113.11C112.897 26.072 112.662 26.4773 112.406 26.904C112.193 27.3307 111.937 27.7147 111.638 28.056C111.425 28.3547 111.041 28.8667 110.486 29.592C109.931 30.2747 109.611 30.7867 109.526 31.128H109.462C109.419 31.2987 109.313 31.448 109.142 31.576C109.014 31.7467 108.907 31.896 108.822 32.024C108.054 33.048 107.137 34.136 106.07 35.288C105.003 36.4827 103.915 37.4213 102.806 38.104C103.19 38.488 103.638 38.808 104.15 39.064C104.363 39.064 104.47 39.1067 104.47 39.192C104.47 39.2773 104.513 39.3627 104.598 39.448H104.726C104.854 39.448 105.025 39.4267 105.238 39.384C105.494 39.384 105.665 39.384 105.75 39.384C105.963 39.384 106.07 39.4693 106.07 39.64C106.07 39.8533 105.963 39.96 105.75 39.96ZM99.542 37.656C99.7553 37.656 99.99 37.592 100.246 37.464C100.545 37.336 100.886 37.1867 101.27 37.016C101.227 36.9307 101.206 36.8667 101.206 36.824C101.206 36.7813 101.163 36.7387 101.078 36.696C101.035 36.568 100.971 36.44 100.886 36.312C100.843 36.184 100.779 36.056 100.694 35.928V35.864C100.609 35.6507 100.523 35.416 100.438 35.16C100.395 34.904 100.331 34.6693 100.246 34.456H100.182C100.011 34.1147 99.8833 33.4747 99.798 32.536C99.7553 31.64 99.734 30.9787 99.734 30.552C99.6913 30.7653 99.5847 31.1707 99.414 31.768C99.286 32.3653 99.158 32.9413 99.03 33.496C98.9447 34.0933 98.902 34.4773 98.902 34.648C98.646 34.8187 98.518 34.968 98.518 35.096C98.518 35.1813 98.5393 35.2667 98.582 35.352C98.6673 35.4373 98.7313 35.544 98.774 35.672C98.774 36.9947 99.03 37.656 99.542 37.656Z" fill="white"/>
</svg>
